<svg width="28" height="28" viewBox="0 0 28 28" fill="none" xmlns="http://www.w3.org/2000/svg">
<rect width="28" height="28" rx="6.51163" fill="url(#gradient-1)"/>
<path fill-rule="evenodd" clip-rule="evenodd" d="M7.86419 18.9115C7.42916 18.6437 7.16309 18.1668 7.16309 17.6547V14.7952C7.16309 14.6858 7.19222 14.5802 7.2466 14.4864C7.41556 14.1932 7.79039 14.0935 8.08171 14.2655L14.4946 18.028C14.8694 18.2489 15.1005 18.6515 15.1005 19.0894V22.0525C15.1005 22.1873 15.0636 22.3222 14.9937 22.4375C14.782 22.7854 14.3314 22.8949 13.9857 22.6818L7.86419 18.9115ZM17.4233 13.4818C17.7981 13.7026 18.0292 14.1053 18.0292 14.5431V20.5553C18.0292 20.7331 17.934 20.8973 17.7806 20.9833L16.3765 21.7788C16.359 21.7886 16.3396 21.7964 16.3201 21.8023V18.4639C16.3201 18.0319 16.0949 17.6313 15.7259 17.4084L10.0937 14.0173V10.2489C10.0937 10.1395 10.1229 10.0339 10.1772 9.94011C10.3462 9.64693 10.721 9.54725 11.0124 9.71925L17.4233 13.4818ZM20.2296 9.04102C20.6064 9.25993 20.8375 9.66648 20.8375 10.1043V18.8861C20.8375 19.0659 20.7385 19.232 20.5811 19.318L19.2508 20.0412V13.9274C19.2508 13.4954 19.0255 13.0967 18.6585 12.8739L12.902 9.3987V5.82383C12.902 5.71438 12.9312 5.60883 12.9836 5.51501C13.1526 5.22183 13.5274 5.12215 13.8187 5.29219L20.2296 9.04102Z" fill="white"/>
<defs>
<linearGradient id="gradient-1" x1="22.1395" y1="3.09302" x2="1.30233" y2="28" gradientUnits="userSpaceOnUse">
<stop stop-color="#01558A"/>
<stop offset="1" stop-color="#273845"/>
<stop offset="1" stop-color="#003E65"/>
</linearGradient>
</defs>
</svg>
